<svg xmlns="http://www.w3.org/2000/svg" width="64" height="64" viewBox="0 0 64 64">
  <!-- Rounded square background with orange/amber gradient -->
  <defs>
    <linearGradient id="bg" x1="0%" y1="0%" x2="100%" y2="100%">
      <stop offset="0%" style="stop-color:#f97316;stop-opacity:1" />
      <stop offset="100%" style="stop-color:#ea580c;stop-opacity:1" />
    </linearGradient>
  </defs>
  <rect width="64" height="64" rx="14" ry="14" fill="url(#bg)" />
  <!-- Brain icon (white) centered -->
  <g transform="translate(10, 11)" fill="white">
    <!-- Left hemisphere -->
    <path d="M18 8C14.5 8 11 10.5 11 14.5C11 16 11.5 17.3 12.4 18.3C11.5 19 11 20.2 11 21.5C11 23.5 12.3 25.2 14.1 25.8C14 26.2 14 26.6 14 27C14 29.2 15.8 31 18 31L18 8Z" opacity="0.95"/>
    <!-- Right hemisphere -->
    <path d="M26 8C29.5 8 33 10.5 33 14.5C33 16 32.5 17.3 31.6 18.3C32.5 19 33 20.2 33 21.5C33 23.5 31.7 25.2 29.9 25.8C30 26.2 30 26.6 30 27C30 29.2 28.2 31 26 31L26 8Z" opacity="0.95"/>
    <!-- Center bridge -->
    <rect x="18" y="9" width="8" height="22" rx="1" opacity="0.95"/>
    <!-- Top curve left -->
    <path d="M14 14.5C14 11.5 15.8 9.5 18 8.5" stroke="white" stroke-width="0" fill="none"/>
    <!-- Stem -->
    <rect x="19" y="31" width="6" height="4" rx="1" opacity="0.8"/>
    <!-- Horizontal connector at bottom -->
    <rect x="15" y="33" width="14" height="3" rx="1.5" opacity="0.8"/>
    <!-- Brain folds - left -->
    <path d="M14.5 16 Q12.5 18 14.5 20" stroke="white" stroke-width="1.5" fill="none" stroke-linecap="round" opacity="0.7"/>
    <path d="M14.5 20 Q12.5 22 14.5 24" stroke="white" stroke-width="1.5" fill="none" stroke-linecap="round" opacity="0.7"/>
    <!-- Brain folds - right -->
    <path d="M29.5 16 Q31.5 18 29.5 20" stroke="white" stroke-width="1.5" fill="none" stroke-linecap="round" opacity="0.7"/>
    <path d="M29.5 20 Q31.5 22 29.5 24" stroke="white" stroke-width="1.5" fill="none" stroke-linecap="round" opacity="0.7"/>
  </g>
</svg>